# ProBuilder 5.0.3
# https://unity3d.com/unity/features/worldbuilding/probuilder
# 08.12.2021 11:23:42

mtllib ./Pipe_10.mtl
o Pipe_10

g Pipe_10
v -6.045085 0 0.9389262
v -7 0 -2
v -6.045085 4 0.9389262
v -7 4 -2
v -6.75 0 -2
v -5.842831 0 0.7919798
v -6.75 4 -2
v -5.842831 4 0.7919798
v -3.545085 0 2.755283
v -3.545085 4 2.755283
v -3.467831 0 2.517519
v -3.467831 4 2.517519
v -0.4549153 0 2.755283
v -0.4549153 4 2.755283
v -0.5321696 0 2.517519
v -0.5321696 4 2.517519
v 2.045085 0 0.938926
v 2.045085 4 0.938926
v 1.842831 0 0.7919798
v 1.842831 4 0.7919798
v 3 0 -2
v 3 4 -2
v 2.75 0 -2
v 2.75 4 -2
v 2.045085 0 -4.938926
v 2.045085 4 -4.938926
v 1.842831 0 -4.79198
v 1.842831 4 -4.79198
v -0.4549146 0 -6.755282
v -0.4549146 4 -6.755282
v -0.5321689 0 -6.517518
v -0.5321689 4 -6.517518
v -3.545086 0 -6.755282
v -3.545086 4 -6.755282
v -3.467831 0 -6.517518
v -3.467831 4 -6.517518
v -6.045085 0 -4.938927
v -6.045085 4 -4.938927
v -5.842831 0 -4.79198
v -5.842831 4 -4.79198

vt -0.9750621 0
vt -4.065232 0
vt -0.9750621 4
vt -4.065232 4
vt 3.987978 0
vt 1.052317 0
vt 3.987978 4
vt 1.052317 4
vt -1.248519 0
vt -4.338689 0
vt -1.248519 4
vt -4.338689 4
vt 4.261435 0
vt 1.325773 0
vt 4.261435 4
vt 1.325773 4
vt -0.4549153 0
vt -3.545085 0
vt -0.4549153 4
vt -3.545085 4
vt 3.467831 0
vt 0.5321696 0
vt 3.467831 4
vt 0.5321696 4
vt 1.102622 0
vt -1.987549 0
vt 1.102622 4
vt -1.987549 4
vt 1.910295 0
vt -1.025368 0
vt 1.910295 4
vt -1.025368 4
vt 2.829164 0
vt -0.2610059 0
vt 2.829164 4
vt -0.2610059 4
vt 0.1837517 0
vt -2.75191 0
vt 0.1837517 4
vt -2.75191 4
vt 4.065231 0
vt 0.9750626 0
vt 4.065231 4
vt 0.9750626 4
vt -1.052317 0
vt -3.987978 0
vt -1.052317 4
vt -3.987978 4
vt 4.338689 0
vt 1.248519 0
vt 4.338689 4
vt 1.248519 4
vt -1.325773 0
vt -4.261435 0
vt -1.325773 4
vt -4.261435 4
vt 3.545086 0
vt 0.4549146 0
vt 3.545086 4
vt 0.4549146 4
vt -0.5321689 0
vt -3.467831 0
vt -0.5321689 4
vt -3.467831 4
vt 1.987548 0
vt -1.102621 0
vt 1.987548 4
vt -1.102621 4
vt 1.025366 0
vt -1.910294 0
vt 1.025366 4
vt -1.910294 4
vt 0.2610055 0
vt -2.829165 0
vt 0.2610055 4
vt -2.829165 4
vt 2.75191 0
vt -0.1837515 0
vt 2.75191 4
vt -0.1837515 4
vt -7 -2
vt -6.045085 0.9389262
vt -6.75 -2
vt -5.842831 0.7919798
vt 6.045085 0.9389262
vt 7 -2
vt 5.842831 0.7919798
vt 6.75 -2
vt -3.545085 2.755283
vt -3.467831 2.517519
vt 3.545085 2.755283
vt 3.467831 2.517519
vt -0.4549153 2.755283
vt -0.5321696 2.517519
vt 0.4549153 2.755283
vt 0.5321696 2.517519
vt 2.045085 0.938926
vt 1.842831 0.7919798
vt -2.045085 0.938926
vt -1.842831 0.7919798
vt 3 -2
vt 2.75 -2
vt -3 -2
vt -2.75 -2
vt 2.045085 -4.938926
vt 1.842831 -4.79198
vt -2.045085 -4.938926
vt -1.842831 -4.79198
vt -0.4549146 -6.755282
vt -0.5321689 -6.517518
vt 0.4549146 -6.755282
vt 0.5321689 -6.517518
vt -3.545086 -6.755282
vt -3.467831 -6.517518
vt 3.545086 -6.755282
vt 3.467831 -6.517518
vt -6.045085 -4.938927
vt -5.842831 -4.79198
vt 6.045085 -4.938927
vt 5.842831 -4.79198

vn -0.809017 0 0.5877852
vn -1 0 3.133601E-08
vn 1 0 -3.133602E-08
vn 0.809017 0 -0.5877853
vn -0.309017 0 0.9510565
vn 0.309017 0 -0.9510565
vn 0.309017 0 0.9510565
vn -0.309017 0 -0.9510565
vn 0.809017 0 0.5877852
vn -0.809017 0 -0.5877852
vn 0 -1 0
vn 0 1 0

usemtl Lit
f 3/3/1 4/4/2 2/2/2 1/1/1
f 7/7/3 8/8/4 6/6/4 5/5/3
f 10/11/5 3/12/1 1/10/1 9/9/5
f 8/15/4 12/16/6 11/14/6 6/13/4
f 14/19/7 10/20/5 9/18/5 13/17/7
f 12/23/6 16/24/8 15/22/8 11/21/6
f 18/27/9 14/28/7 13/26/7 17/25/9
f 16/31/8 20/32/10 19/30/10 15/29/8
f 22/35/3 18/36/9 17/34/9 21/33/3
f 20/39/10 24/40/2 23/38/2 19/37/10
f 26/43/4 22/44/3 21/42/3 25/41/4
f 24/47/2 28/48/1 27/46/1 23/45/2
f 30/51/6 26/52/4 25/50/4 29/49/6
f 28/55/1 32/56/5 31/54/5 27/53/1
f 34/59/8 30/60/6 29/58/6 33/57/8
f 32/63/5 36/64/7 35/62/7 31/61/5
f 38/67/10 34/68/8 33/66/8 37/65/10
f 36/71/7 40/72/9 39/70/9 35/69/7
f 4/75/2 38/76/10 37/74/10 2/73/2
f 40/79/9 7/80/3 5/78/3 39/77/9
f 5/83/11 6/84/11 1/82/11 2/81/11
f 8/87/12 7/88/12 4/86/12 3/85/12
f 6/84/11 11/90/11 9/89/11 1/82/11
f 12/92/12 8/87/12 3/85/12 10/91/12
f 11/90/11 15/94/11 13/93/11 9/89/11
f 16/96/12 12/92/12 10/91/12 14/95/12
f 15/94/11 19/98/11 17/97/11 13/93/11
f 20/100/12 16/96/12 14/95/12 18/99/12
f 19/98/11 23/102/11 21/101/11 17/97/11
f 24/104/12 20/100/12 18/99/12 22/103/12
f 23/102/11 27/106/11 25/105/11 21/101/11
f 28/108/12 24/104/12 22/103/12 26/107/12
f 27/106/11 31/110/11 29/109/11 25/105/11
f 32/112/12 28/108/12 26/107/12 30/111/12
f 31/110/11 35/114/11 33/113/11 29/109/11
f 36/116/12 32/112/12 30/111/12 34/115/12
f 35/114/11 39/118/11 37/117/11 33/113/11
f 40/120/12 36/116/12 34/115/12 38/119/12
f 39/118/11 5/83/11 2/81/11 37/117/11
f 7/88/12 40/120/12 38/119/12 4/86/12

