# ProBuilder 5.0.3
# https://unity3d.com/unity/features/worldbuilding/probuilder
# 08.12.2021 11:23:42

mtllib ./Pipe_08.mtl
o Pipe_08

g Pipe_08
v -5.535534 0 1.535534
v -7 0 -2
v -5.535534 4 1.535534
v -7 4 -2
v -6.75 0 -2
v -5.358757 0 1.358757
v -6.75 4 -2
v -5.358757 4 1.358757
v -2 0 3
v -2 4 3
v -2 0 2.75
v -2 4 2.75
v 1.535534 0 1.535534
v 1.535534 4 1.535534
v 1.358757 0 1.358757
v 1.358757 4 1.358757
v 3 0 -2
v 3 4 -2
v 2.75 0 -2
v 2.75 4 -2
v 1.535534 0 -5.535533
v 1.535534 4 -5.535533
v 1.358757 0 -5.358757
v 1.358757 4 -5.358757
v -2 0 -7
v -2 4 -7
v -2 0 -6.75
v -2 4 -6.75
v -5.535533 0 -5.535534
v -5.535533 4 -5.535534
v -5.358757 0 -5.358758
v -5.358757 4 -5.358758

vt -0.6997088 0
vt -4.526543 0
vt -0.6997088 4
vt -4.526543 4
vt 4.430872 0
vt 0.7953797 0
vt 4.430872 4
vt 0.7953797 4
vt 0.8310249 0
vt -2.995809 0
vt 0.8310249 4
vt -2.995809 4
vt 2.900138 0
vt -0.7353541 0
vt 2.900138 4
vt -0.7353541 4
vt 2.99581 0
vt -0.8310251 0
vt 2.99581 4
vt -0.8310251 4
vt 0.7353542 0
vt -2.900139 0
vt 0.7353542 4
vt -2.900139 4
vt 4.526543 0
vt 0.6997091 0
vt 4.526543 4
vt 0.6997091 4
vt -0.7953802 0
vt -4.430872 0
vt -0.7953802 4
vt -4.430872 4
vt -7 -2
vt -5.535534 1.535534
vt -6.75 -2
vt -5.358757 1.358757
vt 5.535534 1.535534
vt 7 -2
vt 5.358757 1.358757
vt 6.75 -2
vt -2 3
vt -2 2.75
vt 2 3
vt 2 2.75
vt 1.535534 1.535534
vt 1.358757 1.358757
vt -1.535534 1.535534
vt -1.358757 1.358757
vt 3 -2
vt 2.75 -2
vt -3 -2
vt -2.75 -2
vt 1.535534 -5.535533
vt 1.358757 -5.358757
vt -1.535534 -5.535533
vt -1.358757 -5.358757
vt -2 -7
vt -2 -6.75
vt 2 -7
vt 2 -6.75
vt -5.535533 -5.535534
vt -5.358757 -5.358758
vt 5.535533 -5.535534
vt 5.358757 -5.358758

vn -0.7071068 0 0.7071068
vn -1 0 -9.677341E-08
vn 1 0 3.22578E-08
vn 0.7071068 0 -0.7071068
vn 1.61289E-08 0 1
vn -1.61289E-08 0 -1
vn 0.7071068 0 0.7071068
vn -0.7071068 0 -0.7071068
vn 0 -1 0
vn 0 1 0

usemtl Lit
f 3/3/1 4/4/2 2/2/2 1/1/1
f 7/7/3 8/8/4 6/6/4 5/5/3
f 10/3/5 3/4/1 1/2/1 9/1/5
f 8/7/4 12/8/6 11/6/6 6/5/4
f 14/11/7 10/12/5 9/10/5 13/9/7
f 12/15/6 16/16/8 15/14/8 11/13/6
f 18/19/3 14/20/7 13/18/7 17/17/3
f 16/23/8 20/24/2 19/22/2 15/21/8
f 22/27/4 18/28/3 17/26/3 21/25/4
f 20/31/2 24/32/1 23/30/1 19/29/2
f 26/27/6 22/28/4 21/26/4 25/25/6
f 24/31/1 28/32/5 27/30/5 23/29/1
f 30/19/8 26/20/6 25/18/6 29/17/8
f 28/23/5 32/24/7 31/22/7 27/21/5
f 4/11/2 30/12/8 29/10/8 2/9/2
f 32/15/7 7/16/3 5/14/3 31/13/7
f 5/35/9 6/36/9 1/34/9 2/33/9
f 8/39/10 7/40/10 4/38/10 3/37/10
f 6/36/9 11/42/9 9/41/9 1/34/9
f 12/44/10 8/39/10 3/37/10 10/43/10
f 11/42/9 15/46/9 13/45/9 9/41/9
f 16/48/10 12/44/10 10/43/10 14/47/10
f 15/46/9 19/50/9 17/49/9 13/45/9
f 20/52/10 16/48/10 14/47/10 18/51/10
f 19/50/9 23/54/9 21/53/9 17/49/9
f 24/56/10 20/52/10 18/51/10 22/55/10
f 23/54/9 27/58/9 25/57/9 21/53/9
f 28/60/10 24/56/10 22/55/10 26/59/10
f 27/58/9 31/62/9 29/61/9 25/57/9
f 32/64/10 28/60/10 26/59/10 30/63/10
f 31/62/9 5/35/9 2/33/9 29/61/9
f 7/40/10 32/64/10 30/63/10 4/38/10

