# ProBuilder 5.0.3
# https://unity3d.com/unity/features/worldbuilding/probuilder
# 08.12.2021 11:23:42

mtllib ./Pipe_24.mtl
o Pipe_24

g Pipe_24
v -6.829629 0 -0.7059047
v -7 0 -2
v -6.829629 4 -0.7059047
v -7 4 -2
v -6.75 0 -2
v -6.588148 0 -0.7706095
v -6.75 4 -2
v -6.588148 4 -0.7706095
v -6.330127 0 0.5
v -6.330127 4 0.5
v -6.11362 0 0.375
v -6.11362 4 0.375
v -5.535534 0 1.535534
v -5.535534 4 1.535534
v -5.358757 0 1.358757
v -5.358757 4 1.358757
v -4.5 0 2.330127
v -4.5 4 2.330127
v -4.375 0 2.113621
v -4.375 4 2.113621
v -3.294096 0 2.829629
v -3.294096 4 2.829629
v -3.229391 0 2.588148
v -3.229391 4 2.588148
v -2 0 3
v -2 4 3
v -2 0 2.75
v -2 4 2.75
v -0.7059047 0 2.829629
v -0.7059047 4 2.829629
v -0.7706095 0 2.588148
v -0.7706095 4 2.588148
v 0.5000002 0 2.330127
v 0.5000002 4 2.330127
v 0.3750002 0 2.11362
v 0.3750002 4 2.11362
v 1.535534 0 1.535534
v 1.535534 4 1.535534
v 1.358757 0 1.358757
v 1.358757 4 1.358757
v 2.330127 0 0.5000002
v 2.330127 4 0.5000002
v 2.11362 0 0.3750002
v 2.11362 4 0.3750002
v 2.829629 0 -0.7059044
v 2.829629 4 -0.7059044
v 2.588148 0 -0.7706091
v 2.588148 4 -0.7706091
v 3 0 -2
v 3 4 -2
v 2.75 0 -2
v 2.75 4 -2
v 2.829629 0 -3.294096
v 2.829629 4 -3.294096
v 2.588148 0 -3.229391
v 2.588148 4 -3.229391
v 2.330127 0 -4.5
v 2.330127 4 -4.5
v 2.11362 0 -4.375
v 2.11362 4 -4.375
v 1.535534 0 -5.535533
v 1.535534 4 -5.535533
v 1.358757 0 -5.358757
v 1.358757 4 -5.358757
v 0.4999995 0 -6.330127
v 0.4999995 4 -6.330127
v 0.3749995 0 -6.113621
v 0.3749995 4 -6.113621
v -0.7059051 0 -6.829629
v -0.7059051 4 -6.829629
v -0.7706099 0 -6.588148
v -0.7706099 4 -6.588148
v -2 0 -7
v -2 4 -7
v -2 0 -6.75
v -2 4 -6.75
v -3.294095 0 -6.829629
v -3.294095 4 -6.829629
v -3.22939 0 -6.588148
v -3.22939 4 -6.588148
v -4.5 0 -6.330127
v -4.5 4 -6.330127
v -4.375 0 -6.113621
v -4.375 4 -6.113621
v -5.535533 0 -5.535534
v -5.535533 4 -5.535534
v -5.358757 0 -5.358758
v -5.358757 4 -5.358758
v -6.330127 0 -4.500001
v -6.330127 4 -4.500001
v -6.11362 0 -4.375001
v -6.11362 4 -4.375001
v -6.829629 0 -3.294096
v -6.829629 4 -3.294096
v -6.588148 0 -3.229392
v -6.588148 4 -3.229392

vt -1.591312 0
vt -2.896574 0
vt -1.591312 4
vt -2.896574 4
vt 2.863942 0
vt 1.623943 0
vt 2.863942 4
vt 1.623943 4
vt -1.960495 0
vt -3.265757 0
vt -1.960495 4
vt -3.265757 4
vt 3.233127 0
vt 1.993128 0
vt 3.233127 4
vt 1.993128 4
vt -2.151598 0
vt -3.45686 0
vt -2.151598 4
vt -3.45686 4
vt 3.424228 0
vt 2.184229 0
vt 3.424228 4
vt 2.184229 4
vt -1.069207 0
vt -2.374469 0
vt -1.069207 4
vt -2.374469 4
vt 2.341837 0
vt 1.101838 0
vt 2.341837 4
vt 1.101838 4
vt -0.4297609 0
vt -1.735023 0
vt -0.4297609 4
vt -1.735023 4
vt 1.702392 0
vt 0.4623928 0
vt 1.702392 4
vt 0.4623928 4
vt 0.2834472 0
vt -1.021814 0
vt 0.2834472 4
vt -1.021814 4
vt 0.9891825 0
vt -0.250816 0
vt 0.9891825 4
vt -0.250816 4
vt 1.021814 0
vt -0.2834472 0
vt 1.021814 4
vt -0.2834472 4
vt 0.250816 0
vt -0.9891825 0
vt 0.250816 4
vt -0.9891825 4
vt 1.735023 0
vt 0.4297611 0
vt 1.735023 4
vt 0.4297611 4
vt -0.4623931 0
vt -1.702392 0
vt -0.4623931 4
vt -1.702392 4
vt 2.374469 0
vt 1.069206 0
vt 2.374469 4
vt 1.069206 4
vt -1.101837 0
vt -2.341837 0
vt -1.101837 4
vt -2.341837 4
vt 2.896573 0
vt 1.591311 0
vt 2.896573 4
vt 1.591311 4
vt -1.623943 0
vt -2.863942 0
vt -1.623943 4
vt -2.863942 4
vt 3.265757 0
vt 1.960495 0
vt 3.265757 4
vt 1.960495 4
vt -1.993125 0
vt -3.233124 0
vt -1.993125 4
vt -3.233124 4
vt 3.45686 0
vt 2.151599 0
vt 3.45686 4
vt 2.151599 4
vt -2.184232 0
vt -3.42423 0
vt -2.184232 4
vt -3.42423 4
vt -7 -2
vt -6.829629 -0.7059047
vt -6.75 -2
vt -6.588148 -0.7706095
vt 6.829629 -0.7059047
vt 7 -2
vt 6.588148 -0.7706095
vt 6.75 -2
vt -6.330127 0.5
vt -6.11362 0.375
vt 6.330127 0.5
vt 6.11362 0.375
vt -5.535534 1.535534
vt -5.358757 1.358757
vt 5.535534 1.535534
vt 5.358757 1.358757
vt -4.5 2.330127
vt -4.375 2.113621
vt 4.5 2.330127
vt 4.375 2.113621
vt -3.294096 2.829629
vt -3.229391 2.588148
vt 3.294096 2.829629
vt 3.229391 2.588148
vt -2 3
vt -2 2.75
vt 2 3
vt 2 2.75
vt -0.7059047 2.829629
vt -0.7706095 2.588148
vt 0.7059047 2.829629
vt 0.7706095 2.588148
vt 0.5000002 2.330127
vt 0.3750002 2.11362
vt -0.5000002 2.330127
vt -0.3750002 2.11362
vt 1.535534 1.535534
vt 1.358757 1.358757
vt -1.535534 1.535534
vt -1.358757 1.358757
vt 2.330127 0.5000002
vt 2.11362 0.3750002
vt -2.330127 0.5000002
vt -2.11362 0.3750002
vt 2.829629 -0.7059044
vt 2.588148 -0.7706091
vt -2.829629 -0.7059044
vt -2.588148 -0.7706091
vt 3 -2
vt 2.75 -2
vt -3 -2
vt -2.75 -2
vt 2.829629 -3.294096
vt 2.588148 -3.229391
vt -2.829629 -3.294096
vt -2.588148 -3.229391
vt 2.330127 -4.5
vt 2.11362 -4.375
vt -2.330127 -4.5
vt -2.11362 -4.375
vt 1.535534 -5.535533
vt 1.358757 -5.358757
vt -1.535534 -5.535533
vt -1.358757 -5.358757
vt 0.4999995 -6.330127
vt 0.3749995 -6.113621
vt -0.4999995 -6.330127
vt -0.3749995 -6.113621
vt -0.7059051 -6.829629
vt -0.7706099 -6.588148
vt 0.7059051 -6.829629
vt 0.7706099 -6.588148
vt -2 -7
vt -2 -6.75
vt 2 -7
vt 2 -6.75
vt -3.294095 -6.829629
vt -3.22939 -6.588148
vt 3.294095 -6.829629
vt 3.22939 -6.588148
vt -4.5 -6.330127
vt -4.375 -6.113621
vt 4.5 -6.330127
vt 4.375 -6.113621
vt -5.535533 -5.535534
vt -5.358757 -5.358758
vt 5.535533 -5.535534
vt 5.358757 -5.358758
vt -6.330127 -4.500001
vt -6.11362 -4.375001
vt 6.330127 -4.500001
vt 6.11362 -4.375001
vt -6.829629 -3.294096
vt -6.588148 -3.229392
vt 6.829629 -3.294096
vt 6.588148 -3.229392

vn -0.9659258 0 0.2588191
vn -1 0 6.011897E-08
vn 1 0 -5.26041E-08
vn 0.9659258 0 -0.2588192
vn -0.8660254 0 0.4999999
vn 0.8660254 0 -0.5000001
vn -0.7071069 0 0.7071067
vn 0.7071069 0 -0.7071067
vn -0.5 0 0.8660254
vn 0.5000001 0 -0.8660253
vn -0.258819 0 0.9659258
vn 0.258819 0 -0.9659258
vn 3.005949E-08 0 1
vn -3.005949E-08 0 -1
vn 0.2588191 0 0.9659258
vn -0.2588191 0 -0.9659258
vn 0.5 0 0.8660254
vn -0.5000001 0 -0.8660254
vn 0.7071068 0 0.7071068
vn -0.7071068 0 -0.7071068
vn 0.8660253 0 0.5000001
vn -0.8660254 0 -0.5000001
vn 0.9659258 0 0.2588191
vn -0.9659258 0 -0.2588192
vn -0.8660254 0 0.5000001
vn -0.5000001 0 0.8660254
vn -0.4999999 0 -0.8660254
vn 0 -1 0
vn 0 1 0

usemtl Lit
f 3/3/1 4/4/2 2/2/2 1/1/1
f 7/7/3 8/8/4 6/6/4 5/5/3
f 10/11/5 3/12/1 1/10/1 9/9/5
f 8/15/4 12/16/6 11/14/6 6/13/4
f 14/19/7 10/20/5 9/18/5 13/17/7
f 12/23/6 16/24/8 15/22/8 11/21/6
f 18/19/9 14/20/7 13/18/7 17/17/9
f 16/23/8 20/24/10 19/22/10 15/21/8
f 22/11/11 18/12/9 17/10/9 21/9/11
f 20/15/10 24/16/12 23/14/12 19/13/10
f 26/3/13 22/4/11 21/2/11 25/1/13
f 24/7/12 28/8/14 27/6/14 23/5/12
f 30/27/15 26/28/13 25/26/13 29/25/15
f 28/31/14 32/32/16 31/30/16 27/29/14
f 34/35/17 30/36/15 29/34/15 33/33/17
f 32/39/16 36/40/18 35/38/18 31/37/16
f 38/43/19 34/44/17 33/42/17 37/41/19
f 36/47/18 40/48/20 39/46/20 35/45/18
f 42/51/21 38/52/19 37/50/19 41/49/21
f 40/55/20 44/56/22 43/54/22 39/53/20
f 46/59/23 42/60/21 41/58/21 45/57/23
f 44/63/22 48/64/24 47/62/24 43/61/22
f 50/67/3 46/68/23 45/66/23 49/65/3
f 48/71/24 52/72/2 51/70/2 47/69/24
f 54/75/4 50/76/3 49/74/3 53/73/4
f 52/79/2 56/80/1 55/78/1 51/77/2
f 58/83/6 54/84/4 53/82/4 57/81/6
f 56/87/1 60/88/25 59/86/25 55/85/1
f 62/91/8 58/92/6 57/90/6 61/89/8
f 60/95/25 64/96/7 63/94/7 59/93/25
f 66/91/10 62/92/8 61/90/8 65/89/10
f 64/95/7 68/96/26 67/94/26 63/93/7
f 70/83/12 66/84/10 65/82/10 69/81/12
f 68/87/26 72/88/11 71/86/11 67/85/26
f 74/75/14 70/76/12 69/74/12 73/73/14
f 72/79/11 76/80/13 75/78/13 71/77/11
f 78/67/16 74/68/14 73/66/14 77/65/16
f 76/71/13 80/72/15 79/70/15 75/69/13
f 82/59/27 78/60/16 77/58/16 81/57/27
f 80/63/15 84/64/17 83/62/17 79/61/15
f 86/51/20 82/52/27 81/50/27 85/49/20
f 84/55/17 88/56/19 87/54/19 83/53/17
f 90/43/22 86/44/20 85/42/20 89/41/22
f 88/47/19 92/48/21 91/46/21 87/45/19
f 94/35/24 90/36/22 89/34/22 93/33/24
f 92/39/21 96/40/23 95/38/23 91/37/21
f 4/27/2 94/28/24 93/26/24 2/25/2
f 96/31/23 7/32/3 5/30/3 95/29/23
f 5/99/28 6/100/28 1/98/28 2/97/28
f 8/103/29 7/104/29 4/102/29 3/101/29
f 6/100/28 11/106/28 9/105/28 1/98/28
f 12/108/29 8/103/29 3/101/29 10/107/29
f 11/106/28 15/110/28 13/109/28 9/105/28
f 16/112/29 12/108/29 10/107/29 14/111/29
f 15/110/28 19/114/28 17/113/28 13/109/28
f 20/116/29 16/112/29 14/111/29 18/115/29
f 19/114/28 23/118/28 21/117/28 17/113/28
f 24/120/29 20/116/29 18/115/29 22/119/29
f 23/118/28 27/122/28 25/121/28 21/117/28
f 28/124/29 24/120/29 22/119/29 26/123/29
f 27/122/28 31/126/28 29/125/28 25/121/28
f 32/128/29 28/124/29 26/123/29 30/127/29
f 31/126/28 35/130/28 33/129/28 29/125/28
f 36/132/29 32/128/29 30/127/29 34/131/29
f 35/130/28 39/134/28 37/133/28 33/129/28
f 40/136/29 36/132/29 34/131/29 38/135/29
f 39/134/28 43/138/28 41/137/28 37/133/28
f 44/140/29 40/136/29 38/135/29 42/139/29
f 43/138/28 47/142/28 45/141/28 41/137/28
f 48/144/29 44/140/29 42/139/29 46/143/29
f 47/142/28 51/146/28 49/145/28 45/141/28
f 52/148/29 48/144/29 46/143/29 50/147/29
f 51/146/28 55/150/28 53/149/28 49/145/28
f 56/152/29 52/148/29 50/147/29 54/151/29
f 55/150/28 59/154/28 57/153/28 53/149/28
f 60/156/29 56/152/29 54/151/29 58/155/29
f 59/154/28 63/158/28 61/157/28 57/153/28
f 64/160/29 60/156/29 58/155/29 62/159/29
f 63/158/28 67/162/28 65/161/28 61/157/28
f 68/164/29 64/160/29 62/159/29 66/163/29
f 67/162/28 71/166/28 69/165/28 65/161/28
f 72/168/29 68/164/29 66/163/29 70/167/29
f 71/166/28 75/170/28 73/169/28 69/165/28
f 76/172/29 72/168/29 70/167/29 74/171/29
f 75/170/28 79/174/28 77/173/28 73/169/28
f 80/176/29 76/172/29 74/171/29 78/175/29
f 79/174/28 83/178/28 81/177/28 77/173/28
f 84/180/29 80/176/29 78/175/29 82/179/29
f 83/178/28 87/182/28 85/181/28 81/177/28
f 88/184/29 84/180/29 82/179/29 86/183/29
f 87/182/28 91/186/28 89/185/28 85/181/28
f 92/188/29 88/184/29 86/183/29 90/187/29
f 91/186/28 95/190/28 93/189/28 89/185/28
f 96/192/29 92/188/29 90/187/29 94/191/29
f 95/190/28 5/99/28 2/97/28 93/189/28
f 7/104/29 96/192/29 94/191/29 4/102/29

